<?xml version="1.0" encoding="iso-8859-1"?>
<!-- Uploaded to: SVG Repo, www.svgrepo.com, Generator: SVG Repo Mixer Tools -->
<svg fill="#000000" height="800px" width="800px" version="1.1" id="Layer_1" xmlns="http://www.w3.org/2000/svg" xmlns:xlink="http://www.w3.org/1999/xlink" 
	 viewBox="0 0 512 512" xml:space="preserve">
<g>
	<g>
		<g>
			<path d="M468.971,0H341.696c-23.744,0-43.029,19.307-43.029,43.029v127.275c0,23.723,19.285,43.029,43.029,43.029h127.275
				c23.744,0,43.029-19.307,43.029-43.029V43.029C512,19.307,492.715,0,468.971,0z M405.333,128
				C393.557,128,384,118.443,384,106.667s9.557-21.333,21.333-21.333s21.333,9.557,21.333,21.333S417.109,128,405.333,128z"/>
			<path d="M399.04,265.899L344.939,320h-28.587c2.347-6.677,3.648-13.845,3.648-21.333c0-35.285-28.715-64-64-64H152.789
				L128,226.411V192c0-11.776-9.536-21.333-21.333-21.333H21.333C9.536,170.667,0,180.224,0,192v298.667
				C0,502.443,9.536,512,21.333,512h85.333c11.797,0,21.333-9.557,21.333-21.333v-21.333h127.061
				c60.501,0,119.467-17.173,170.517-49.664c1.323-0.832,2.517-1.813,3.627-2.901l60.331-60.352
				c24.939-24.96,24.939-65.557,0-90.517C465.451,241.792,423.125,241.792,399.04,265.899z M85.333,241.771V448v21.333H42.667v-256
				h42.667V241.771z"/>
		</g>
	</g>
</g>
</svg>