<?xml version="1.0" encoding="iso-8859-1"?>
<!-- Uploaded to: SVG Repo, www.svgrepo.com, Generator: SVG Repo Mixer Tools -->
<svg fill="#000000" height="800px" width="800px" version="1.1" id="Layer_1" xmlns="http://www.w3.org/2000/svg" xmlns:xlink="http://www.w3.org/1999/xlink" 
	 viewBox="0 0 512 512" xml:space="preserve">
<g>
	<g>
		<path d="M426.667,0H85.333C73.536,0,64,9.536,64,21.333v469.333C64,502.443,73.536,512,85.333,512h341.333
			c11.797,0,21.333-9.557,21.333-21.333V21.333C448,9.536,438.464,0,426.667,0z M310.507,380.416
			c-3.648,2.411-7.765,3.584-11.819,3.584c-6.891,0-13.675-3.349-17.771-9.515l-46.251-69.376v57.557
			c0,11.776-9.536,21.333-21.333,21.333C201.536,384,192,374.443,192,362.667V128c0-11.797,9.536-21.333,21.333-21.333
			c11.797,0,21.333,9.536,21.333,21.333v45.845l47.339-59.179c7.36-9.195,20.779-10.688,29.995-3.328
			c9.195,7.36,10.688,20.779,3.328,29.973l-75.584,94.507l76.672,115.008C322.965,360.619,320.32,373.888,310.507,380.416z"/>
	</g>
</g>
</svg>